<?xml version="1.0" standalone="no"?>
<!DOCTYPE svg PUBLIC "-//W3C//DTD SVG 20010904//EN"
 "http://www.w3.org/TR/2001/REC-SVG-20010904/DTD/svg10.dtd">
<svg version="1.0" xmlns="http://www.w3.org/2000/svg"
 width="828.000000pt" height="828.000000pt" viewBox="0 0 828.000000 828.000000"
 preserveAspectRatio="xMidYMid meet">
<metadata>
Created by potrace 1.14, written by Peter Selinger 2001-2017
</metadata>
<g transform="translate(0.000000,828.000000) scale(0.100000,-0.100000)"
fill="#000000" stroke="none">
<path d="M4014 7949 c-65 -39 -132 -79 -149 -89 -40 -23 -580 -351 -670 -406
-38 -24 -83 -51 -100 -60 -50 -28 -458 -275 -488 -296 -15 -10 -53 -33 -85
-50 -31 -18 -61 -36 -67 -40 -7 -7 -345 -211 -475 -288 -23 -14 -213 -129
-230 -140 -8 -5 -42 -25 -75 -45 -33 -19 -67 -40 -75 -45 -8 -6 -93 -57 -188
-114 -169 -102 -173 -105 -150 -119 13 -8 118 -72 233 -142 116 -70 244 -148
285 -174 41 -25 82 -50 92 -56 10 -5 117 -71 238 -145 121 -74 228 -139 238
-145 10 -5 62 -37 117 -71 153 -93 746 -455 777 -473 14 -9 71 -43 124 -76 54
-33 121 -74 151 -90 29 -17 58 -36 65 -43 7 -7 18 -12 25 -12 7 0 13 -4 13
-10 0 -5 4 -10 9 -10 6 0 108 -60 228 -134 120 -73 294 -180 388 -237 93 -57
182 -110 197 -117 14 -8 34 -22 44 -33 16 -18 17 -131 17 -1959 0 -1067 2
-1940 5 -1940 2 0 50 28 106 61 199 122 866 525 1151 697 160 96 355 215 435
263 80 49 161 98 180 109 19 11 49 29 65 39 49 30 794 480 868 524 l67 41 0
1966 0 1966 -62 37 c-35 21 -72 43 -83 50 -71 44 -102 63 -120 73 -35 19 -78
45 -356 214 -149 91 -288 175 -308 186 -21 12 -103 62 -182 111 -80 49 -152
92 -160 96 -8 4 -30 17 -50 30 -39 23 -510 310 -544 330 -11 7 -43 27 -72 45
-30 17 -55 32 -57 32 -3 0 -31 17 -63 38 -32 20 -67 42 -78 48 -11 7 -112 68
-224 135 -112 68 -222 135 -246 149 -53 31 -525 317 -606 367 l-36 23 -119
-71z"/>
<path d="M880 3867 l0 -1742 148 -89 c81 -49 307 -186 502 -304 195 -118 516
-312 712 -431 197 -119 381 -231 410 -249 29 -18 62 -37 73 -42 11 -6 32 -18
47 -28 34 -22 562 -342 597 -362 14 -8 78 -47 141 -85 131 -80 129 -79 203
-122 30 -18 56 -33 58 -33 2 0 4 301 4 668 l0 669 -478 284 c-263 156 -491
291 -505 299 -15 8 -92 54 -172 101 -80 48 -253 150 -385 229 l-240 142 0
1070 c0 1088 -1 1108 -34 1108 -4 0 -149 88 -322 195 -173 107 -321 199 -329
204 -8 5 -106 66 -217 135 -111 69 -204 126 -207 126 -3 0 -6 -784 -6 -1743z"/>
</g>
</svg>
